# xmcd CD database file
# Copyright (C) 1993-1997  Ti Kan
#
# Track frame offsets:
#	182
#	4517
#	31575
#	49117
#	85362
#	104802
#	124927
#	152975
#	192030
#	212282
#	242150
#	274020
#
# Disc length: 3960 seconds
#
# Revision: 1
# Processed by: cddbd v1.4b41PL1 Copyright (c) Steve Scherf et al.
# Submitted via: xmcd 2.1 PL2
#
DISCID=990f760c
DTITLE=Paul Lamb and The King Snakes - Fine Condition
DYEAR=1900
DGENRE=
TTITLE0=One More Time
TTITLE1=Everyday I Have The Blues
TTITLE2=Come On Everybody
TTITLE3=Fine Condition
TTITLE4=Who Do You Think You Are
TTITLE5=Why Do You Treat Me So
TTITLE6=Texas Boogie
TTITLE7=I Ain't Asking Much
TTITLE8=Swing Out
TTITLE9=I Don't Need You Anymore
TTITLE10=Don't Lose Your Cool
TTITLE11=Good Rockin' Tonight
EXTD=
EXTT0=
EXTT1=
EXTT2=
EXTT3=
EXTT4=
EXTT5=
EXTT6=
EXTT7=
EXTT8=
EXTT9=
EXTT10=
EXTT11=
PLAYORDER=
